<svg xmlns="http://www.w3.org/2000/svg" xmlns:xlink="http://www.w3.org/1999/xlink" viewBox="0 0 199.6 126.5">

	<filter id="f1">
		<feGaussianBlur stdDeviation="2"/>
	</filter>

	<style>
		#vegan_today {
			fill: #258774;
		}
		#feuilles {
			fill: #8ad672;
		}
		#carotte {
			fill: #f49537;
		}
		#wrinkles {
			fill: #be7333;
		}
		#coeurotte:hover {
			filter:url(#f1);
		}
	</style>
<g id="vegan_today">
	<path d="M10.3,117.7l3.6-10.1c0.3-0.7,0.5-1.2,0.5-1.6c0-0.5-0.2-0.7-0.5-0.7c-0.2,0-0.3,0.1-0.5,0.1
		c-0.2,0.1-0.4,0.2-0.8,0.2c-0.6,0-1.1-0.5-1.1-1.2c0-0.6,0.5-1.1,1.1-1.1c0.8,0,1.9,0.4,3.1,0.4c1.1,0,2.3-0.4,3.2-0.4
		c0.8,0,1.3,0.5,1.3,1.1c0,0.8-0.7,1.2-1.1,1.2c-0.2,0-0.5-0.1-0.7-0.2c-0.2-0.1-0.5-0.1-0.6-0.1c-0.3,0-0.4,0.5-1,2l-4.4,11.4
		c-0.4,1-0.9,1.9-2.2,1.9c-1.2,0-1.7-0.9-2.1-1.9l-4.5-11.7c-0.5-1.2-0.8-1.6-1.2-1.6c-0.2,0-0.4,0.1-0.6,0.1
		c-0.2,0.1-0.4,0.2-0.7,0.2c-0.5,0-0.9-0.5-0.9-1.2c0-0.6,0.4-1.1,1.3-1.1c1,0,1.8,0.4,3,0.4c1.1,0,2.3-0.4,3.3-0.4
		c1,0,1.4,0.5,1.4,1.1c0,0.8-0.7,1.2-1.1,1.2c-0.2,0-0.5-0.1-0.7-0.2c-0.3-0.1-0.5-0.1-0.8-0.1c-0.3,0-0.5,0.2-0.5,0.5
		c0,0.3,0.2,0.7,0.3,0.9L10.3,117.7z"/>
	<path d="M23.8,112.1c-0.1,3.3,1.7,6.4,5.3,6.4c2.2,0,3.9-1.1,4.5-3.2c0.2-0.7,0.4-1.4,1.2-1.4
		c0.7,0,1.3,0.5,1.3,1.2c0,1.3-1,2.9-1.9,3.8c-1.4,1.3-3.5,1.9-5.3,1.9c-5.1,0-7.8-3.8-7.8-8.7c0-2.2,0.6-4.6,1.9-6.4
		c1.5-1.9,3.7-2.9,6-2.9c4.4,0,7.4,3.2,7.4,7.5c0,1.6,0,1.8-1.6,1.8H23.8z M33.7,109.8c-0.2-2.7-1.7-4.7-4.6-4.7c-2.8,0-4.8,2-5,4.7
		H33.7z"/>
	<path d="M45.8,115.8c1.9,0,3.7,0.1,5.5,0.7c2.1,0.7,3.8,2.2,3.8,4.6c0,4.2-5.2,5.2-8.4,5.2c-3.2,0-8.3-0.9-8.3-5.1
		c0-1.9,1.3-3.3,3.1-3.9v-0.1c-1.5-0.5-2.7-1.4-2.7-3.1c0-1.7,1.2-2.8,2.7-3.3c-0.7-0.8-0.9-1.8-0.9-2.8c0-3.4,3.1-5.3,6.2-5.3
		c0.7,0,1.3,0,2,0.2c-0.1-2.1,1.8-3.4,3.8-3.4c1.8,0,3.7,1,3.7,3c0,0.9-0.8,1.9-1.8,1.9c-0.7,0-1.3-0.6-1.3-1.3
		c0-0.5,0.4-0.8,0.7-1.1c-0.3-0.5-0.8-0.7-1.4-0.7c-1.3,0-1.9,1-1.8,2.2c1.6,0.9,2.5,2.7,2.5,4.6c0,3.5-3,5.5-6.2,5.5
		c-1.3,0-2.5-0.4-3.8-0.9c-0.2-0.1-0.6-0.2-0.9-0.2c-0.7,0-1.2,0.8-1.2,1.4c0,1.6,2.3,1.7,3.4,1.7H45.8z M42.8,118.8
		c-0.9,0.5-1.7,1.3-1.7,2.4c0,1.2,1.1,2.1,2.1,2.5c1,0.4,2.4,0.5,3.5,0.5c1.9,0,5.7-0.5,5.7-3c0-2.6-3.6-3-5.6-3
		C45.6,118.2,43.9,118.3,42.8,118.8z M50.7,108.3c-0.1-2.1-1.9-3.4-3.8-3.4c-2,0-3.7,1.3-3.7,3.4c0,2.2,1.7,3.4,3.7,3.4
		C48.8,111.7,50.6,110.5,50.7,108.3z"/>
	<path d="M70.5,115c0,1-0.3,3.6,1.2,3.6c1.4,0,1.2-2.1,1.2-3c0-0.9-0.1-2,1-2c0.9,0,1.1,0.6,1.1,1.3
		c0,2.5,0,3.6-0.7,4.5c-0.7,0.9-1.8,1.2-2.9,1.2c-1.6,0-3-0.7-3.3-2.4c-1.1,1.8-3.2,2.5-5.3,2.5c-1.3,0-2.7-0.2-3.9-0.9
		c-1.3-0.8-2.2-2.3-2.2-3.9c0-1.8,0.7-3.3,2.2-4.1c1.4-0.8,2.8-1,4.4-1.2c2-0.2,4.5-0.2,4.5-2.6c0-2.2-1.8-2.9-3.7-2.9
		c-0.8,0-1.8,0.3-2.5,0.7c-0.3,0.2-0.8,0.5-0.8,0.8c0,0.2,0.8,0.2,0.8,1.3c0,1-0.8,1.5-1.8,1.5c-1.1,0-2-0.9-2-2.1
		c0-1.4,0.9-2.6,2-3.4c1.2-0.8,2.9-1.2,4.3-1.2c1.5,0,3.2,0.4,4.5,1.3c1.6,1.2,1.8,3,1.8,5L70.5,115z M62.9,118.5
		c1.5,0,3.1-0.5,4.1-1.7c0.7-1,0.8-2,0.8-3.2c0-0.7,0-1.4,0.1-2.1c-1.2,1.2-3,1.2-4.6,1.4c-1.7,0.2-3.8,0.6-3.8,2.8
		C59.6,117.7,61.2,118.5,62.9,118.5z"/>
	<path d="M79.5,108.1c0-2.3-0.2-2.8-0.9-2.8c-0.6,0-1,0.2-1.5,0.2c-0.7,0-1.1-0.5-1.1-1.1c0-0.6,0.7-1.2,1.2-1.2
		c0.7,0,0.9,0.4,1.8,0.4c0.9,0,1.2-0.4,2.1-0.4c0.7,0,0.7,0.7,0.7,2h0.1c1.2-1.7,3.4-2.4,5.5-2.4c1.7,0,3.4,0.6,4.7,1.8
		c1.4,1.3,1.5,3,1.5,4.8v6.1c0,2,0.2,2.8,0.9,2.8c0.6,0,1-0.2,1.5-0.2c0.7,0,1.1,0.5,1.1,1.1c0,0.8-0.5,1.2-1.4,1.2
		c-1.1,0-1.9-0.4-3.3-0.4c-1.6,0-2.3,0.4-3.5,0.4c-0.9,0-1.4-0.4-1.4-1.2c0-0.6,0.5-1.1,1.1-1.1c0.5,0,0.9,0.2,1.5,0.2
		c0.8,0,0.9-0.7,0.9-2.8v-4.8c0-2.1,0-2.7-0.5-3.8c-0.7-1.3-2.2-1.8-3.6-1.8c-1.5,0-3.2,0.6-4,1.9c-0.4,0.6-0.8,1.3-0.8,4.6v3.9
		c0,2,0.2,2.8,0.9,2.8c0.6,0,1-0.2,1.5-0.2c0.7,0,1.1,0.5,1.1,1.1c0,0.8-0.5,1.2-1.4,1.2c-1.1,0-1.9-0.4-3.3-0.4
		c-1.6,0-2.3,0.4-3.5,0.4c-0.9,0-1.4-0.5-1.4-1.2c0-0.6,0.5-1.1,1.1-1.1c0.5,0,0.9,0.2,1.5,0.2c0.8,0,0.9-0.7,0.9-2.8V108.1z"/>
	<path d="M112.3,106.8c0-1-0.1-1.1-1.1-1.1c-1.3,0-1.9-0.2-1.9-1.2c0-0.6,0.6-1.2,1.2-1.2h1.1c0.6,0,0.7-0.1,0.7-1
		v-2.7c0-0.9,0.2-1.7,1.3-1.7c1.1,0,1.2,0.8,1.2,1.6v3.2c0,0.5,0.1,0.5,0.6,0.5h3.3c1.3,0,1.7,0.4,1.7,1.2c0,0.6-0.3,1.2-1.8,1.2
		h-2.9c-0.8,0-0.8,0.1-0.8,0.7v7.9c0,2.9,0.7,3.9,2.4,3.9c2,0,2.3-1.7,2.3-3.2v-1c0-1.5,0.4-2.1,1.3-2.1c0.9,0,1.2,0.8,1.2,1.6
		c0,3.8-0.6,7.1-5.2,7.1c-1.5,0-3.1-0.6-3.9-2c-0.5-0.9-0.7-1.7-0.7-4.4V106.8z"/>
	<path d="M131.3,102.8c2.4,0,4.5,0.6,6,2.5c1.4,1.8,2.1,4.2,2.1,6.4c0,5-2.8,9-8.1,9c-5.2,0-7.7-4.1-7.7-8.9
		C123.6,107,126.1,102.8,131.3,102.8z M131.3,118.5c4,0,5.3-3.5,5.3-6.9c0-1.5-0.3-3.3-1.2-4.6c-0.9-1.4-2.4-1.9-4-1.9
		c-1.8,0-3.2,0.6-4.1,2.2c-0.8,1.3-1.1,3-1.1,4.4C126.3,114.9,127.5,118.5,131.3,118.5z"/>
	<path d="M156.9,115.4c0,2.3,0.3,2.7,0.9,2.7c0.6,0,1-0.2,1.5-0.2c0.7,0,1.1,0.5,1.1,1.1c0,0.8-0.5,1.2-1.1,1.2
		c-0.6,0-1.2-0.4-1.9-0.4c-0.7,0-1,0.4-1.8,0.4c-0.8,0-1.1-0.3-1.1-1.6v-0.3h-0.1c-1,1.7-3.1,2.4-5,2.4c-5.2,0-7.6-4.3-7.6-9
		c0-4.6,2.4-8.8,7.4-8.8c2,0,3.9,0.7,5.1,2.4h0.1v-3.2c0-2.4-0.3-2.7-0.9-2.7c-0.6,0-1,0.2-1.5,0.2c-0.7,0-1.1-0.5-1.1-1.1
		c0-0.7,0.6-1.2,1.2-1.2c0.9,0,1.4,0.4,2.3,0.4c0.8,0,1.3-0.4,2-0.4c0.4,0,0.6,0.3,0.6,1.4V115.4z M144.6,111.8
		c0,3.2,1.4,6.7,5.1,6.7c1.7,0,3.3-0.7,4-2.3c0.7-1.3,0.8-3.1,0.8-4.6c0-1.6-0.1-3.4-1-4.7c-0.9-1.3-2.3-1.9-3.9-1.9
		C145.7,105,144.6,108.6,144.6,111.8z"/>
	<path d="M175,115c0,1-0.3,3.6,1.2,3.6c1.4,0,1.2-2.1,1.2-3c0-0.9-0.1-2,1-2c0.9,0,1.1,0.6,1.1,1.3
		c0,2.5,0,3.6-0.7,4.5c-0.7,0.9-1.8,1.2-2.9,1.2c-1.6,0-3-0.7-3.3-2.4c-1.1,1.8-3.2,2.5-5.3,2.5c-1.3,0-2.7-0.2-3.9-0.9
		c-1.3-0.8-2.2-2.3-2.2-3.9c0-1.8,0.7-3.3,2.2-4.1c1.4-0.8,2.8-1,4.4-1.2c2-0.2,4.5-0.2,4.5-2.6c0-2.2-1.8-2.9-3.7-2.9
		c-0.8,0-1.8,0.3-2.5,0.7c-0.3,0.2-0.8,0.5-0.8,0.8c0,0.2,0.8,0.2,0.8,1.3c0,1-0.8,1.5-1.8,1.5c-1.1,0-2-0.9-2-2.1
		c0-1.4,0.9-2.6,2-3.4c1.2-0.8,2.9-1.2,4.3-1.2c1.5,0,3.2,0.4,4.5,1.3c1.6,1.2,1.8,3,1.8,5L175,115z M167.4,118.5
		c1.5,0,3.1-0.5,4.1-1.7c0.7-1,0.8-2,0.8-3.2c0-0.7,0-1.4,0.1-2.1c-1.2,1.2-3,1.2-4.6,1.4c-1.7,0.2-3.8,0.6-3.8,2.8
		C164,117.7,165.7,118.5,167.4,118.5z"/>
	<path d="M189.5,117.8L189.5,117.8l4-10.8c0.2-0.5,0.3-0.8,0.3-1.1c0-0.5-0.4-0.6-0.8-0.6c-0.2,0-0.5,0.1-0.7,0.1
		c-0.2,0.1-0.5,0.2-0.8,0.2c-0.5,0-1-0.5-1-1.1c0-0.8,0.7-1.2,1.2-1.2c1.1,0,2.1,0.4,3.5,0.4c1.3,0,2.3-0.4,3.4-0.4
		c0.7,0,1.1,0.5,1.1,1.1s-0.5,1.2-1,1.2c-0.2,0-0.5-0.1-0.7-0.2c-0.2-0.1-0.4-0.1-0.6-0.1c-0.6,0-0.8,0.5-1.4,2l-4.1,10.4
		c-1.7,4.2-3.7,8.8-9,8.8c-2.1,0-4.7-1.2-4.7-3.6c0-1.2,0.8-2.3,2.2-2.3c1,0,1.8,0.6,1.8,1.6c0,0.6-0.4,1.2-1,1.3
		c0.3,0.7,1.2,0.8,1.9,0.8c1.2,0,2.3-0.4,3.2-1.3c0.7-0.7,1.5-1.9,1.5-3c0-1.2-0.7-2.4-1.2-3.6l-3.6-9c-0.7-1.7-1-2.2-1.5-2.2
		c-0.5,0-0.9,0.3-1.7,0.3c-0.5,0-0.9-0.5-0.9-1.1c0-0.8,0.7-1.2,1.3-1.2c1.1,0,2.2,0.4,3.5,0.4c1.3,0,2.3-0.4,3.4-0.4
		c0.7,0,1.4,0.5,1.4,1.2c0,0.6-0.5,1.1-0.8,1.1c-0.2,0-0.6-0.1-0.8-0.2c-0.3-0.1-0.6-0.1-0.8-0.1c-0.3,0-0.5,0.3-0.3,0.8
		L189.5,117.8z"/>
</g>
<g id="coeurotte">
	<path id="feuilles" d="M99.6,37.2c0.5-7.1,16.2-13.3,20.3-18.4c3.9-4.8,2.8-14-4.6-17.7c-5.7-2.8-12.8,0.2-15.7,5.2
		c-2.9-5-10-8-15.7-5.2c-7.4,3.7-8.5,12.8-4.6,17.7C83.4,23.8,99.2,30,99.6,37.2z"/>
	<path id="carotte" d="M105.2,90.9c-1.1,0.9-3.2,1.5-5.5,1.5c-2.3,0-4.3-0.6-5.4-1.4c-4.6-3.7-9.5-9.4-14.2-16.9
		C75.7,67,72,59.4,69.4,51.8c-1.1-3.2-0.8-7.2,1-10.6c1.9-3.4,5-5.6,8.2-6.1c6.5-0.9,13.8-1.4,21.4-1.3c7.6,0,14.7,0.5,21.1,1.5
		c3.1,0.5,6.1,2.7,7.9,6.1c1.8,3.3,2.1,7.3,1,10.4c-2.5,7.5-6.1,15.1-10.5,22.1C114.8,81.3,109.9,87.2,105.2,90.9z"/>
	<g id="wrinkles">
		<path d="M106.5,69.5H92.8c-1.4,0-2.5-1.1-2.5-2.5s1.1-2.5,2.5-2.5h13.7c1.4,0,2.5,1.1,2.5,2.5
			S107.9,69.5,106.5,69.5z"/>
		<path d="M106.5,55.5H92.8c-1.4,0-2.5-1.1-2.5-2.5s1.1-2.5,2.5-2.5h13.7c1.4,0,2.5,1.1,2.5,2.5
			S107.9,55.5,106.5,55.5z"/>
	</g>
</g>
</svg>
